<svg xmlns="http://www.w3.org/2000/svg" width="40" height="60" viewBox="0 0 40 60">
  <g fill="none" fill-rule="evenodd">
    <!-- Pin drop shadow -->
    <path fill-opacity="0.2" fill="#000000" d="M20,59.6 L32,38 C38.6,30.6 40,22 36,14 C32,6 26,2 20,2 C14,2 8,6 4,14 C0,22 1.4,30.6 8,38 L20,59.6 Z" transform="translate(1,1)" />
    
    <!-- Main pin body with pointy bottom -->
    <path fill="#00FF00" d="M20,58.6 L32,37 C38.6,29.6 40,21 36,13 C32,5 26,1 20,1 C14,1 8,5 4,13 C0,21 1.4,29.6 8,37 L20,58.6 Z" />
    
    <!-- Inner circle -->
    <circle fill="#000000" cx="20" cy="20" r="8" />
    
    <!-- Reflection/highlight -->
    <path fill-opacity="0.3" fill="#FFFFFF" d="M20,5 C26,5 32,9 36,17 C34,9 28,5 20,5 Z" />
  </g>
</svg>